<svg xmlns="http://www.w3.org/2000/svg" viewBox="0 -2205 6460 1910">
<g transform="scale(1 -1)"><path fill="#100f0d" d="M6221 293H239A240 240 0 0 0 0 532v1436c0 131 108 239 239 239h5982c131 0 239-108 239-239V532c0-131-108-239-239-239"/><path fill="#a2a2a1" d="M6221 2207H239A240 240 0 0 1 0 1968V532c0-131 108-239 239-239h5982c131 0 239 108 239 239v1436c0 131-108 239-239 239m0-38c111 0 201-90 201-201V532c0-111-90-201-201-201H239c-111 0-201 90-201 201v1436c0 111 90 201 201 201h5982"/><path fill="#fff" d="M5117 771h89v599h-89zm804 383-102-259h-3l-106 259h-96l159-362-91-202h93l246 564zm-506-315c-29 0-70 15-70 51 0 46 51 64 95 64 39 0 57-8 81-20-7-55-55-95-106-95m11 328c-65 0-132-28-160-91l80-33c17 33 48 43 81 43 46 0 93-27 94-76v-7c-16 10-51 23-93 23-85 0-172-47-172-134 0-80 70-132 148-132 60 0 93 27 114 59h3v-47h86v230c0 106-79 165-181 165m-552-86h-127v205h127c67 0 105-55 105-102 0-46-38-103-105-103m-2 289h-214V771h89v227h125c99 0 196 72 196 186s-97 186-196 186M3705 839c-62 0-113 52-113 123 0 72 51 124 113 124 61 0 109-52 109-124 0-71-48-123-109-123m102 282h-3c-20 24-58 45-107 45-102 0-195-89-195-204 0-114 93-203 195-203 49 0 87 22 107 46h3v-29c0-78-41-119-108-119-55 0-89 39-103 72l-78-32c23-54 82-121 181-121 105 0 193 62 193 212v366h-85zm147-350h89v599h-89zm221 198c-2 78 61 119 107 119 35 0 65-18 75-44zm278 68c-17 45-69 129-175 129-104 0-191-82-191-203 0-114 86-204 201-204 94 0 148 57 170 90l-69 47c-23-34-55-57-101-57-45 0-77 21-98 62l272 113zm-2168 67v-87h206c-6-48-22-84-47-108-30-30-77-63-159-63a227 227 0 0 0-227 229 227 227 0 0 0 382 168l61 61c-51 49-120 87-216 87a321 321 0 0 1-321-316c0-174 146-316 321-316 94 0 165 31 220 89 57 57 75 137 75 202 0 20-2 38-5 54zm530-265c-62 0-115 51-115 124s53 123 115 123c61 0 115-50 115-123s-54-124-115-124m0 327c-113 0-205-85-205-203 0-117 92-204 205-204 112 0 204 87 204 204 0 118-92 203-204 203m445-327c-61 0-114 51-114 124s53 123 114 123c62 0 115-50 115-123s-53-124-115-124m0 327c-112 0-204-85-204-203 0-117 92-204 204-204 113 0 205 87 205 204 0 118-92 203-205 203"/><path fill="#eb3131" d="M991 1278 482 737v-1a138 138 0 0 1 203-82h1l574 331-269 293"/><path fill="#f6b60b" d="M1507 1370h-1l-247 143-279-248 280-280 246 143a138 138 0 0 1 1 242"/><path fill="#5778c5" d="M482 1763c-3-11-5-23-5-35V772c0-12 2-24 5-35l527 527-527 499"/><path fill="#3bad49" d="m995 1250 264 264-573 332a138 138 0 0 1-204-83l513-513"/>
<path fill="#fff" d="M2094 1622c33 0 60 9 78 28 19 19 29 45 29 78s-10 59-29 77c-18 19-45 28-78 28h-49v-211zm-95 255h96c31 0 57-7 80-19 23-13 41-30 53-53 13-22 19-48 19-77 0-30-6-55-19-78-12-23-30-40-53-53-23-12-49-18-80-18h-96v298M2306 1877h46v-298h-46v298M2448 1594c-20 14-34 34-41 60l43 18c4-17 12-30 24-41 11-11 25-16 41-16 15 0 28 4 38 12s16 18 16 32c0 12-5 23-14 31s-25 16-48 24l-18 7c-21 7-37 17-51 30a68 68 0 0 0-20 51c0 15 4 28 12 41 8 12 19 22 33 29 14 8 30 11 49 11a95 95 0 0 0 93-61l-41-18c-3 10-9 19-18 26-8 7-20 11-34 11s-25-4-35-11c-9-7-14-16-14-27s4-19 13-26c8-7 22-13 39-19l19-7c26-9 46-20 60-35 13-14 20-33 20-56 0-20-5-36-14-49a89 89 0 0 0-38-30c-16-6-31-9-48-9-24 0-46 7-66 22M2778 1738c15 0 28 4 37 14s14 21 14 33c0 13-5 24-14 34s-22 14-37 14h-58v-95zm-104 139h103c17 0 34-4 49-12 14-8 26-19 35-32 9-14 13-30 13-48 0-17-4-33-13-47-9-13-21-24-35-32-15-8-32-12-49-12h-57v-115h-46v298M3122 1630c17 9 30 22 39 40 10 17 15 36 15 58 0 21-5 41-15 58a104 104 0 0 1-94 54 107 107 0 0 1-94-54c-9-17-14-37-14-58 0-22 5-41 14-58a104 104 0 0 1 94-55c20 0 39 5 55 15zm-133-37c-24 14-43 32-56 56s-20 50-20 79a156 156 0 0 0 76 135c23 13 49 20 78 20a151 151 0 0 0 134-77c14-24 20-50 20-78a156 156 0 0 0-75-135c-24-14-50-21-79-21s-55 7-78 21M3280 1877h55l134-219h3l-3 57v162h46v-298h-48l-141 230h-3l3-58v-172h-46v298M3590 1877h46v-298h-46v298M3827 1621c15 0 26 4 35 13s13 19 13 32c0 12-4 22-13 31s-21 14-36 14h-69v-90zm-7 130c14 0 25 5 34 13a41 41 0 0 1 0 58c-8 9-19 13-32 13h-65v-84zm-109 126h111c16 0 31-4 45-11 13-7 24-16 32-28s12-26 12-40c0-15-4-28-11-39-8-11-17-19-30-25v-2a70 70 0 0 0 51-70c0-16-4-31-13-43-8-13-19-23-34-30-14-7-30-10-47-10h-116v298M3981 1877h46v-255h129v-43h-175v298M4204 1877h180v-44h-134v-84h121v-43h-121v-84h134v-43h-180v298M4559 1594c-20 14-34 34-41 60l43 18c4-17 12-30 24-41 11-11 25-16 41-16 15 0 28 4 38 12s16 18 16 32c0 12-5 23-14 31s-25 16-48 24l-18 7c-21 7-37 17-51 30a68 68 0 0 0-20 51c0 15 4 28 12 41 8 12 19 22 33 29 14 8 31 11 49 11a95 95 0 0 0 93-61l-41-18c-3 10-9 19-17 26-9 7-21 11-35 11s-25-4-35-11c-9-7-14-16-14-27s5-19 13-26 22-13 39-19l19-7c26-9 46-20 60-35 13-14 20-33 20-56 0-20-4-36-14-49a89 89 0 0 0-38-30c-16-6-31-9-47-9-25 0-47 7-67 22M4832 1587c-17 10-30 24-39 42-10 19-14 40-14 64v184h45v-186c0-23 6-41 18-55 11-14 28-21 49-21 22 0 38 7 50 21s18 32 18 55v186h45v-184c0-24-5-45-14-63-9-19-22-33-39-43s-37-15-60-15c-22 0-42 5-59 15M5178 1738c15 0 27 4 37 13s15 21 15 35a47 47 0 0 1-50 48h-59v-96zm-103 139h105c18 0 34-4 49-12a89 89 0 0 0 47-80c0-20-7-37-20-53a94 94 0 0 0-48-31v-2l82-118v-2h-53l-80 117h-36v-117h-46v298"/></g></svg>